# xmcd
#
# Track frame offsets:
# 150
# 12412
# 29477
# 42075
# 58196
# 76170
# 94761
# 106951
# 120454
# 141600
# 157681
#
# Disc length: 2299 seconds
#
# Revision: 0
# Processed by: cddbd v1.5.1PL0 Copyright (c) Steve Scherf et al.
# Submitted via: Audion 3.0.2 (http://www.panic.com/audion/)
#
DISCID=8708f90b
DTITLE=Melissa Mullins - Solo-Style
DYEAR=1900
DGENRE=
TTITLE0=Sparkle Girl
TTITLE1=Doesn't Matter
TTITLE2=My Field
TTITLE3=Dreams of a World
TTITLE4=Light Found
TTITLE5=Music Master
TTITLE6=Tumbling Out
TTITLE7=Forgiveness
TTITLE8=Ocean
TTITLE9=Now Is Now
TTITLE10=Solid Blue
EXTD=
EXTT0=
EXTT1=
EXTT2=
EXTT3=
EXTT4=
EXTT5=
EXTT6=
EXTT7=
EXTT8=
EXTT9=
EXTT10=
PLAYORDER=
